<svg width="6" height="9" viewBox="0 0 6 9" fill="none" xmlns="http://www.w3.org/2000/svg">
<path d="M3.76609 4.81142L0.878592 1.92392C0.772333 1.8139 0.713537 1.66655 0.714866 1.51361C0.716195 1.36066 0.777543 1.21435 0.885698 1.1062C0.993853 0.998041 1.14016 0.936692 1.29311 0.935363C1.44606 0.934034 1.59341 0.992831 1.70343 1.09909L5.00334 4.39901C5.1127 4.5084 5.17413 4.65674 5.17413 4.81142C5.17413 4.9661 5.1127 5.11445 5.00334 5.22384L1.70343 8.52376C1.59341 8.63001 1.44606 8.68881 1.29311 8.68748C1.14016 8.68615 0.993853 8.6248 0.885698 8.51665C0.777543 8.40849 0.716195 8.26219 0.714866 8.10924C0.713537 7.95629 0.772333 7.80894 0.878592 7.69892L3.76609 4.81142Z" fill="white"/>
</svg>
