<svg width="62" height="54" viewBox="0 0 62 54" fill="none" xmlns="http://www.w3.org/2000/svg">
<path d="M54.0729 0.529846H8.47554C4.27844 0.529846 0.875977 3.93231 0.875977 8.12941V46.1272C0.875977 50.3243 4.27844 53.7268 8.47554 53.7268H54.0729C58.27 53.7268 61.6725 50.3243 61.6725 46.1272V8.12941C61.6725 3.93231 58.27 0.529846 54.0729 0.529846ZM59.7726 46.1272C59.7726 49.27 57.2157 51.8269 54.0729 51.8269H8.47554C5.33276 51.8269 2.77587 49.27 2.77587 46.1272V8.12941C2.77587 4.98663 5.33276 2.42974 8.47554 2.42974H54.0729C57.2157 2.42974 59.7726 4.98663 59.7726 8.12941V46.1272ZM27.4744 10.0293C26.4252 10.0293 25.5746 10.88 25.5746 11.9292C25.5746 12.9784 26.4252 13.8291 27.4744 13.8291C28.5237 13.8291 29.3743 12.9784 29.3743 11.9292C29.3743 10.88 28.5237 10.0293 27.4744 10.0293ZM38.8738 10.0293C37.8246 10.0293 36.9739 10.88 36.9739 11.9292C36.9739 12.9784 37.8246 13.8291 38.8738 13.8291C39.923 13.8291 40.7737 12.9784 40.7737 11.9292C40.7737 10.88 39.923 10.0293 38.8738 10.0293ZM50.2731 10.0293C49.2239 10.0293 48.3732 10.88 48.3732 11.9292C48.3732 12.9784 49.2239 13.8291 50.2731 13.8291C51.3223 13.8291 52.173 12.9784 52.173 11.9292C52.173 10.88 51.3223 10.0293 50.2731 10.0293Z" fill="white"/>
</svg>
