<svg width="12" height="13" viewBox="0 0 12 13" fill="none" xmlns="http://www.w3.org/2000/svg">
<path d="M9.59523 6.49915L5.47023 2.37415C5.31843 2.21698 5.23443 2.00648 5.23633 1.78798C5.23823 1.56948 5.32587 1.36047 5.48038 1.20596C5.63488 1.05146 5.84389 0.963817 6.06239 0.961918C6.28089 0.960019 6.49139 1.04401 6.64856 1.19581L11.3627 5.90998C11.519 6.06625 11.6067 6.27818 11.6067 6.49915C11.6067 6.72012 11.519 6.93204 11.3627 7.08831L6.64856 11.8025C6.49139 11.9543 6.28089 12.0383 6.06239 12.0364C5.84389 12.0345 5.63488 11.9468 5.48038 11.7923C5.32587 11.6378 5.23823 11.4288 5.23633 11.2103C5.23443 10.9918 5.31843 10.7813 5.47023 10.6241L9.59523 6.49915ZM4.59523 6.49915L0.470227 2.37415C0.390635 2.29727 0.32715 2.20532 0.283476 2.10365C0.239802 2.00198 0.216813 1.89263 0.215852 1.78198C0.21489 1.67133 0.235975 1.5616 0.277876 1.45918C0.319776 1.35677 0.381654 1.26373 0.459898 1.18548C0.538142 1.10724 0.631185 1.04536 0.733599 1.00346C0.836012 0.961561 0.945745 0.940476 1.05639 0.941438C1.16704 0.942399 1.27639 0.965388 1.37806 1.00906C1.47973 1.05274 1.57169 1.11622 1.64856 1.19581L6.36273 5.90998C6.51895 6.06625 6.60672 6.27818 6.60672 6.49915C6.60672 6.72012 6.51895 6.93204 6.36273 7.08831L1.64856 11.8025C1.49139 11.9543 1.28089 12.0383 1.06239 12.0364C0.843895 12.0345 0.634885 11.9468 0.480378 11.7923C0.325872 11.6378 0.238231 11.4288 0.236332 11.2103C0.234433 10.9918 0.318429 10.7813 0.470227 10.6241L4.59523 6.49915Z" fill="#538FFC"/>
</svg>
