<svg width="63" height="55" viewBox="0 0 63 55" fill="none" xmlns="http://www.w3.org/2000/svg">
<path d="M57.9787 0.031189H4.57063C3.44389 0.031189 2.36331 0.478784 1.56658 1.27551C0.76986 2.07223 0.322266 3.15282 0.322266 4.27956V52.8323C0.322173 53.1426 0.401389 53.4478 0.552395 53.7189C0.703402 53.99 0.921186 54.218 1.18507 54.3812C1.44896 54.5445 1.7502 54.6376 2.06019 54.6517C2.37017 54.6658 2.67862 54.6005 2.95625 54.4619L11.8535 50.0132L20.7508 54.4619C21.0034 54.588 21.2818 54.6536 21.5641 54.6536C21.8464 54.6536 22.1248 54.588 22.3774 54.4619L31.2746 50.0132L40.1719 54.4619C40.4245 54.588 40.7029 54.6536 40.9852 54.6536C41.2675 54.6536 41.5459 54.588 41.7985 54.4619L50.6957 50.0132L59.593 54.4619C59.8456 54.5878 60.1241 54.6532 60.4063 54.653C60.7442 54.6536 61.0755 54.5589 61.3622 54.3799C61.6263 54.217 61.8443 53.9894 61.9957 53.7185C62.1471 53.4477 62.2267 53.1426 62.227 52.8323V4.27956C62.227 3.15282 61.7794 2.07223 60.9827 1.27551C60.186 0.478784 59.1054 0.031189 57.9787 0.031189ZM58.5856 49.8858L51.509 46.3475C51.2564 46.2214 50.978 46.1558 50.6957 46.1558C50.4135 46.1558 50.135 46.2214 49.8825 46.3475L40.9852 50.7961L32.0879 46.3475C31.8353 46.2214 31.5569 46.1558 31.2746 46.1558C30.9924 46.1558 30.7139 46.2214 30.4614 46.3475L21.5641 50.7961L12.6668 46.3475C12.4142 46.2214 12.1358 46.1558 11.8535 46.1558C11.5713 46.1558 11.2928 46.2214 11.0403 46.3475L3.96372 49.8858V4.27956C3.96372 4.11859 4.02766 3.96422 4.14148 3.85041C4.2553 3.73659 4.40967 3.67265 4.57063 3.67265H57.9787C58.1396 3.67265 58.294 3.73659 58.4078 3.85041C58.5216 3.96422 58.5856 4.11859 58.5856 4.27956V49.8858ZM52.5165 21.273C52.5165 21.7559 52.3246 22.219 51.9832 22.5605C51.6417 22.9019 51.1786 23.0938 50.6957 23.0938H36.1299C35.647 23.0938 35.1839 22.9019 34.8425 22.5605C34.501 22.219 34.3092 21.7559 34.3092 21.273C34.3092 20.7901 34.501 20.327 34.8425 19.9856C35.1839 19.6441 35.647 19.4523 36.1299 19.4523H50.6957C51.1786 19.4523 51.6417 19.6441 51.9832 19.9856C52.3246 20.327 52.5165 20.7901 52.5165 21.273ZM52.5165 30.9836C52.5165 31.4665 52.3246 31.9296 51.9832 32.271C51.6417 32.6125 51.1786 32.8043 50.6957 32.8043H36.1299C35.647 32.8043 35.1839 32.6125 34.8425 32.271C34.501 31.9296 34.3092 31.4665 34.3092 30.9836C34.3092 30.5007 34.501 30.0376 34.8425 29.6961C35.1839 29.3547 35.647 29.1628 36.1299 29.1628H50.6957C51.1786 29.1628 51.6417 29.3547 51.9832 29.6961C52.3246 30.0376 52.5165 30.5007 52.5165 30.9836ZM26.4194 14.597H11.8535C11.3707 14.597 10.9075 14.7888 10.5661 15.1303C10.2246 15.4718 10.0328 15.9349 10.0328 16.4177V35.8389C10.0328 36.3217 10.2246 36.7849 10.5661 37.1263C10.9075 37.4678 11.3707 37.6596 11.8535 37.6596H26.4194C26.9023 37.6596 27.3654 37.4678 27.7068 37.1263C28.0483 36.7849 28.2401 36.3217 28.2401 35.8389V16.4177C28.2401 15.9349 28.0483 15.4718 27.7068 15.1303C27.3654 14.7888 26.9023 14.597 26.4194 14.597ZM24.5986 34.0181H13.6743V18.2385H24.5986V34.0181Z" fill="white"/>
</svg>
