<svg width="69" height="63" viewBox="0 0 69 63" fill="none" xmlns="http://www.w3.org/2000/svg">
<path d="M55.9459 39.1719H8.09685V9.89956C8.09685 7.88403 8.89751 5.95105 10.3227 4.52586C11.7479 3.10066 13.6809 2.3 15.6964 2.3H59.0421C61.0576 2.3 62.9906 3.10066 64.4157 4.52586L65.6019 3.33972L64.4158 4.52586C65.841 5.95105 66.6416 7.88403 66.6416 9.89956V14.403H62.1382H60.4494V16.0918V53.2452C60.4494 55.2607 59.6487 57.1937 58.2235 58.6189C56.7983 60.0441 54.8653 60.8448 52.8498 60.8448H9.50417C7.48864 60.8448 5.55567 60.0441 4.13047 58.6189C2.70528 57.1937 1.90461 55.2607 1.90461 53.2452V48.7418H48.0649V53.2452V53.2454C48.0651 54.4174 48.4953 55.5486 49.2741 56.4244C50.0529 57.3002 51.126 57.8597 52.29 57.9968L52.3382 58.0025L52.3867 58.0054L52.749 58.0271L52.7995 58.0301L52.85 58.0301C54.022 58.03 55.1532 57.5997 56.029 56.8209C56.9048 56.0421 57.4643 54.969 57.6015 53.805L57.6071 53.7568L57.61 53.7083L57.6317 53.3461L57.6347 53.2957V53.2452V40.8607V39.1719H55.9459Z" stroke="white" stroke-width="3.37758"/>
</svg>
