<svg width="63" height="56" viewBox="0 0 63 56" fill="none" xmlns="http://www.w3.org/2000/svg">
<path d="M54.0739 1.10765H8.47651C4.04625 1.10765 0.454755 4.69914 0.454755 9.12941V47.1272C0.454755 51.5575 4.04625 55.149 8.47651 55.149H54.0739C58.5042 55.149 62.0956 51.5575 62.0956 47.1272V9.12941C62.0956 4.69914 58.5042 1.10765 54.0739 1.10765ZM59.3514 47.1272C59.3514 50.0368 56.9835 52.4047 54.0739 52.4047H8.47651C5.56691 52.4047 3.19904 50.0368 3.19904 47.1272V9.12941C3.19904 6.21981 5.56691 3.85193 8.47651 3.85193H54.0739C56.9835 3.85193 59.3514 6.21981 59.3514 9.12941V47.1272ZM27.4754 10.6071C26.193 10.6071 25.1533 11.6468 25.1533 12.9292C25.1533 14.2116 26.193 15.2513 27.4754 15.2513C28.7578 15.2513 29.7975 14.2116 29.7975 12.9292C29.7975 11.6468 28.7578 10.6071 27.4754 10.6071ZM38.8748 10.6071C37.5924 10.6071 36.5527 11.6468 36.5527 12.9292C36.5527 14.2116 37.5924 15.2513 38.8748 15.2513C40.1572 15.2513 41.1968 14.2116 41.1968 12.9292C41.1968 11.6468 40.1572 10.6071 38.8748 10.6071ZM50.2741 10.6071C48.9917 10.6071 47.952 11.6468 47.952 12.9292C47.952 14.2116 48.9917 15.2513 50.2741 15.2513C51.5565 15.2513 52.5962 14.2116 52.5962 12.9292C52.5962 11.6468 51.5565 10.6071 50.2741 10.6071Z" fill="white" stroke="white" stroke-width="0.844396"/>
</svg>
