<svg width="66" height="77" viewBox="0 0 66 77" fill="none" xmlns="http://www.w3.org/2000/svg">
<path d="M63.8262 15.7956L63.8324 15.8026C64.1432 16.1536 64.303 16.6131 64.277 17.0813L64.277 17.0813L64.2765 17.0918C62.8214 46.6155 52.2913 64.5417 34.0682 74.9582C33.8223 75.096 33.5647 75.1597 33.3238 75.1597C33.0815 75.1597 32.8246 75.0952 32.5839 74.959C14.3598 64.5426 3.82637 46.6161 2.37417 17.0919L2.37388 17.0864C2.3492 16.6159 2.5102 16.1545 2.82224 15.8014L2.82464 15.7987C2.9638 15.6406 3.13394 15.5127 3.32454 15.4231C3.51431 15.3338 3.72034 15.2843 3.92995 15.2776C7.83944 15.1739 12.0601 13.0714 15.7968 10.8607C17.3104 9.96516 18.8058 9.01278 20.2138 8.11605C20.5741 7.88656 20.9287 7.66071 21.2765 7.44039C23.0075 6.34365 24.5591 5.38969 25.9078 4.7139C27.69 3.82202 29.1203 3.10735 30.323 2.575C31.5232 2.04372 32.3907 1.74319 33.0596 1.623C33.2385 1.59759 33.42 1.59689 33.599 1.62091C34.2672 1.7417 35.1334 2.04206 36.3312 2.57208C37.5339 3.10432 38.9644 3.81871 40.7475 4.71022C42.0965 5.38684 43.6485 6.34157 45.3799 7.43898C45.7258 7.65821 46.0785 7.8829 46.4368 8.1112C47.8466 9.00934 49.3439 9.96331 50.8597 10.8602C54.597 13.0717 58.8182 15.1744 62.7281 15.2776C62.9367 15.2839 63.1417 15.3329 63.3304 15.4218C63.5196 15.511 63.6884 15.6382 63.8262 15.7956Z" stroke="white" stroke-width="3.37758"/>
</svg>
