<svg width="68" height="68" viewBox="0 0 68 68" fill="none" xmlns="http://www.w3.org/2000/svg">
<path d="M32.3047 52.5494C27.1257 52.2797 22.756 50.2836 19.1954 46.5612C15.6349 42.8389 13.8546 38.3612 13.8546 33.1283C13.8546 27.7336 15.7428 23.148 19.5191 19.3717C23.2954 15.5954 27.881 13.7072 33.2757 13.7072C38.5086 13.7072 42.9863 15.4875 46.7086 19.048C50.431 22.6086 52.4271 26.9783 52.6968 32.1573L45.8994 30.1342C45.1981 27.2211 43.6876 24.8344 41.3678 22.9743C39.0481 21.1142 36.3507 20.1831 33.2757 20.1809C29.7152 20.1809 26.6672 21.4487 24.1316 23.9842C21.5961 26.5198 20.3283 29.5678 20.3283 33.1283C20.3283 36.2033 21.2595 38.9007 23.1217 41.2204C24.984 43.5402 27.3706 45.0507 30.2816 45.752L32.3047 52.5494ZM36.1889 65.335C35.7034 65.4429 35.2178 65.4968 34.7323 65.4968H33.2757C28.7981 65.4968 24.5902 64.6466 20.652 62.9462C16.7138 61.2458 13.2882 58.94 10.375 56.029C7.46185 53.1159 5.15613 49.6902 3.45786 45.752C1.7596 41.8139 0.909384 37.606 0.907227 33.1283C0.907227 28.6507 1.75744 24.4428 3.45786 20.5046C5.15829 16.5664 7.46401 13.1408 10.375 10.2276C13.2882 7.31445 16.7138 5.00873 20.652 3.31046C24.5902 1.6122 28.7981 0.761985 33.2757 0.759827C37.7534 0.759827 41.9613 1.61004 45.8994 3.31046C49.8376 5.01089 53.2633 7.31661 56.1764 10.2276C59.0896 13.1408 61.3964 16.5664 63.0968 20.5046C64.7972 24.4428 65.6464 28.6507 65.6442 33.1283V34.5849C65.6442 35.0704 65.5903 35.556 65.4824 36.0415L59.1705 34.0994V33.1283C59.1705 25.8994 56.662 19.7763 51.6448 14.7592C46.6277 9.74208 40.5047 7.23353 33.2757 7.23353C26.0468 7.23353 19.9237 9.74208 14.9066 14.7592C9.88948 19.7763 7.38093 25.8994 7.38093 33.1283C7.38093 40.3573 9.88948 46.4803 14.9066 51.4974C19.9237 56.5146 26.0468 59.0231 33.2757 59.0231H34.2468L36.1889 65.335ZM60.8699 67.1152L47.0323 53.2777L42.9863 65.4968L33.2757 33.1283L65.6442 42.8389L53.4251 46.8849L67.2626 60.7225L60.8699 67.1152Z" fill="white"/>
</svg>
