<svg width="16" height="16" viewBox="0 0 16 16" fill="none" xmlns="http://www.w3.org/2000/svg">
<path d="M6.75009 11.75C7.4067 11.75 8.05688 11.6207 8.66351 11.3694C9.27014 11.1181 9.82133 10.7498 10.2856 10.2855C10.7499 9.82124 11.1182 9.27005 11.3695 8.66342C11.6208 8.05679 11.7501 7.40661 11.7501 6.75C11.7501 6.09339 11.6208 5.44321 11.3695 4.83659C11.1182 4.22996 10.7499 3.67876 10.2856 3.21447C9.82133 2.75018 9.27014 2.38188 8.66351 2.1306C8.05688 1.87933 7.4067 1.75 6.75009 1.75C5.42401 1.75 4.15224 2.27679 3.21456 3.21447C2.27688 4.15215 1.75009 5.42392 1.75009 6.75C1.75009 8.07608 2.27688 9.34785 3.21456 10.2855C4.15224 11.2232 5.42401 11.75 6.75009 11.75ZM12.0168 10.8383L15.0001 13.8217C15.0796 13.8986 15.143 13.9906 15.1866 14.0923C15.2302 14.194 15.2532 14.3034 15.254 14.414C15.2549 14.5247 15.2338 14.6344 15.1918 14.7368C15.1498 14.8391 15.0879 14.9321 15.0096 15.0103C14.9313 15.0885 14.8382 15.1503 14.7357 15.1922C14.6333 15.234 14.5236 15.255 14.4129 15.254C14.3023 15.2529 14.1929 15.2299 14.0913 15.1861C13.9897 15.1424 13.8977 15.0788 13.8209 14.9992L10.8376 12.0158C9.49798 13.0557 7.81242 13.546 6.12406 13.3868C4.43569 13.2277 2.87143 12.4311 1.74972 11.1592C0.628008 9.88734 0.0331644 8.23579 0.086282 6.54077C0.1394 4.84575 0.836485 3.23469 2.03563 2.03554C3.23478 0.836393 4.84585 0.139308 6.54086 0.0861904C8.23588 0.0330729 9.88743 0.627916 11.1593 1.74963C12.4312 2.87134 13.2278 4.4356 13.3869 6.12396C13.5461 7.81233 13.0558 9.49789 12.0159 10.8375L12.0168 10.8383Z" fill="white"/>
</svg>
